<svg xmlns="http://www.w3.org/2000/svg" width="213.755" height="90.424" viewBox="0 0 213.755 90.424"><defs><style>.a{fill:#1a1818;}</style></defs><g transform="translate(-571.801 -796.379)"><g transform="translate(571.801 796.379)"><rect class="a" width="2.237" height="65.605"/><rect class="a" width="2.237" height="65.605" transform="translate(4.186)"/><rect class="a" width="1.84" height="65.605" transform="translate(48.459)"/><rect class="a" width="1.84" height="65.605" transform="translate(63.542)"/><rect class="a" width="1.84" height="65.605" transform="translate(73.068)"/><rect class="a" width="1.84" height="65.605" transform="translate(77.903)"/><rect class="a" width="2.273" height="65.605" transform="translate(84.326)"/><rect class="a" width="2.273" height="65.605" transform="translate(97.893)"/><rect class="a" width="2.273" height="65.605" transform="translate(102.8)"/><rect class="a" width="5.201" height="65.605" transform="translate(108.068)"/><rect class="a" width="2.201" height="65.605" transform="translate(116.728)"/><rect class="a" width="2.201" height="65.605" transform="translate(123.511)"/><rect class="a" width="4.222" height="65.605" transform="translate(129.429)"/><rect class="a" width="4.583" height="65.605" transform="translate(141.192)"/><rect class="a" width="1.84" height="65.605" transform="translate(156.058)"/><rect class="a" width="2.418" height="65.605" transform="translate(165.801)"/><rect class="a" width="5.088" height="65.605" transform="translate(174.027)"/><rect class="a" width="1.84" height="65.605" transform="translate(182.904)"/><rect class="a" width="1.84" height="65.605" transform="translate(189.832)"/><rect class="a" width="5.088" height="65.605" transform="translate(195.388)"/><rect class="a" width="1.985" height="65.605" transform="translate(206.502)"/><rect class="a" width="1.985" height="65.605" transform="translate(211.77)"/><rect class="a" width="1.84" height="65.605" transform="translate(152.161)"/><rect class="a" width="4.438" height="65.605" transform="translate(89.882)"/><rect class="a" width="3.392" height="65.605" transform="translate(7.938)"/><rect class="a" width="4.041" height="65.605" transform="translate(24.248)"/><rect class="a" width="4.041" height="65.605" transform="translate(30.598)"/><rect class="a" width="4.041" height="65.605" transform="translate(41.531)"/><rect class="a" width="3.572" height="65.605" transform="translate(57.227)"/><rect class="a" width="5.598" height="65.605" transform="translate(14.361)"/></g><g transform="translate(606.77 874.218)"><path class="a" d="M1307.759,2435.972v-2.944h-5.337v-1.384l5.618-7.988h1.231v7.988h1.666v1.384h-1.666v2.944Zm0-4.328v-5.56l-3.859,5.56Z" transform="translate(-1302.422 -2423.61)"/><path class="a" d="M1550.063,2428.368a2.885,2.885,0,0,1-1.39-.985,2.559,2.559,0,0,1-.452-1.525,3,3,0,0,1,.962-2.264,4.064,4.064,0,0,1,5.166.023,3.035,3.035,0,0,1,.979,2.275,2.525,2.525,0,0,1-.446,1.49,2.853,2.853,0,0,1-1.372.985,3.134,3.134,0,0,1,2.322,3.155,3.541,3.541,0,0,1-1.114,2.657,4.557,4.557,0,0,1-5.882-.006,3.592,3.592,0,0,1-1.12-2.7,3.239,3.239,0,0,1,.61-2.006A3.057,3.057,0,0,1,1550.063,2428.368Zm-.786,3.12a2.737,2.737,0,0,0,.3,1.249,2.167,2.167,0,0,0,.909.938,2.659,2.659,0,0,0,1.308.334,2.426,2.426,0,0,0,1.782-.7,2.593,2.593,0,0,0-.024-3.577,2.5,2.5,0,0,0-1.818-.709,2.4,2.4,0,0,0-2.463,2.463Zm.481-5.688a1.913,1.913,0,0,0,.563,1.431,2.006,2.006,0,0,0,1.466.552,1.971,1.971,0,0,0,1.431-.546,1.8,1.8,0,0,0,.563-1.343,1.9,1.9,0,0,0-.575-1.4,1.954,1.954,0,0,0-1.431-.569,1.991,1.991,0,0,0-1.443.557A1.778,1.778,0,0,0,1549.758,2425.8Z" transform="translate(-1535.977 -2422.68)"/><path class="a" d="M1787.669,2433.587v1.455h-8.14a3.182,3.182,0,0,1,.176-1.056,5.729,5.729,0,0,1,1-1.63,15.457,15.457,0,0,1,1.976-1.865,16.584,16.584,0,0,0,2.709-2.6,3.125,3.125,0,0,0,.7-1.818,2.027,2.027,0,0,0-.639-1.519,2.307,2.307,0,0,0-1.671-.615,2.373,2.373,0,0,0-1.748.651,2.471,2.471,0,0,0-.668,1.812l-1.548-.152a3.8,3.8,0,0,1,1.2-2.657,4.121,4.121,0,0,1,2.8-.909,3.891,3.891,0,0,1,2.8.985,3.225,3.225,0,0,1,1.032,2.428,3.678,3.678,0,0,1-.305,1.455,5.765,5.765,0,0,1-1,1.507,23.558,23.558,0,0,1-2.328,2.164q-1.36,1.149-1.748,1.554a5.186,5.186,0,0,0-.645.815Z" transform="translate(-1756.693 -2422.68)"/><path class="a" d="M2019.181,2428.967a11.347,11.347,0,0,1,.446-3.513,4.322,4.322,0,0,1,1.337-2.053,3.431,3.431,0,0,1,2.229-.721,3.639,3.639,0,0,1,1.742.4,3.333,3.333,0,0,1,1.232,1.149,6.149,6.149,0,0,1,.763,1.83,12.26,12.26,0,0,1,.275,2.909,11.289,11.289,0,0,1-.446,3.5,4.384,4.384,0,0,1-1.331,2.058,3.4,3.4,0,0,1-2.234.728,3.359,3.359,0,0,1-2.792-1.279Q2019.181,2432.439,2019.181,2428.967Zm1.548,0q0,3.037.71,4.041a2.031,2.031,0,0,0,3.507-.006q.709-1.008.71-4.034t-.71-4.035a2.1,2.1,0,0,0-1.765-1,1.941,1.941,0,0,0-1.666.879A7.759,7.759,0,0,0,2020.729,2428.967Z" transform="translate(-1984.875 -2422.68)"/><path class="a" d="M2258.648,2433.587v1.455h-8.14a3.182,3.182,0,0,1,.176-1.056,5.738,5.738,0,0,1,1-1.63,15.482,15.482,0,0,1,1.977-1.865,16.584,16.584,0,0,0,2.709-2.6,3.125,3.125,0,0,0,.7-1.818,2.026,2.026,0,0,0-.639-1.519,2.307,2.307,0,0,0-1.671-.615,2.373,2.373,0,0,0-1.748.651,2.47,2.47,0,0,0-.669,1.812l-1.548-.152a3.8,3.8,0,0,1,1.2-2.657,4.121,4.121,0,0,1,2.8-.909,3.891,3.891,0,0,1,2.8.985,3.225,3.225,0,0,1,1.032,2.428,3.678,3.678,0,0,1-.305,1.455,5.765,5.765,0,0,1-1,1.507,23.5,23.5,0,0,1-2.328,2.164q-1.36,1.149-1.748,1.554a5.156,5.156,0,0,0-.645.815Z" transform="translate(-2205.13 -2422.68)"/><path class="a" d="M2492.02,2428.368a2.887,2.887,0,0,1-1.39-.985,2.559,2.559,0,0,1-.451-1.525,3,3,0,0,1,.962-2.264,4.064,4.064,0,0,1,5.167.023,3.035,3.035,0,0,1,.979,2.275,2.523,2.523,0,0,1-.446,1.49,2.852,2.852,0,0,1-1.372.985,3.134,3.134,0,0,1,2.322,3.155,3.541,3.541,0,0,1-1.115,2.657,4.556,4.556,0,0,1-5.882-.006,3.592,3.592,0,0,1-1.12-2.7,3.237,3.237,0,0,1,.61-2.006A3.057,3.057,0,0,1,2492.02,2428.368Zm-.786,3.12a2.738,2.738,0,0,0,.305,1.249,2.166,2.166,0,0,0,.909.938,2.659,2.659,0,0,0,1.308.334,2.426,2.426,0,0,0,1.782-.7,2.593,2.593,0,0,0-.023-3.577,2.5,2.5,0,0,0-1.818-.709,2.4,2.4,0,0,0-2.463,2.463Zm.481-5.688a1.912,1.912,0,0,0,.563,1.431,2.005,2.005,0,0,0,1.466.552,1.973,1.973,0,0,0,1.431-.546,1.8,1.8,0,0,0,.563-1.343,1.9,1.9,0,0,0-.575-1.4,1.954,1.954,0,0,0-1.431-.569,1.991,1.991,0,0,0-1.443.557A1.778,1.778,0,0,0,2491.715,2425.8Z" transform="translate(-2432.849 -2422.68)"/><path class="a" d="M2727.609,2428.54v-1.454h7.976v1.173a16.981,16.981,0,0,0-2.328,3.331,20.492,20.492,0,0,0-1.789,4.258,15.394,15.394,0,0,0-.574,3.39h-1.56a15.044,15.044,0,0,1,.569-3.513,18.312,18.312,0,0,1,1.566-3.964,16.86,16.86,0,0,1,2.182-3.22Z" transform="translate(-2659.396 -2426.875)"/><path class="a" d="M2963.1,2428.54v-1.454h7.976v1.173a16.981,16.981,0,0,0-2.328,3.331,20.452,20.452,0,0,0-1.789,4.258,15.422,15.422,0,0,0-.575,3.39h-1.56a15.018,15.018,0,0,1,.569-3.513,18.312,18.312,0,0,1,1.566-3.964,16.86,16.86,0,0,1,2.182-3.22Z" transform="translate(-2883.614 -2426.875)"/><path class="a" d="M3196.622,2436.249l1.584-.129a2.837,2.837,0,0,0,.821,1.736,2.22,2.22,0,0,0,1.548.586,2.415,2.415,0,0,0,1.847-.821,3.092,3.092,0,0,0,.757-2.182,2.8,2.8,0,0,0-.728-2.047,2.536,2.536,0,0,0-1.9-.745,2.68,2.68,0,0,0-1.319.328,2.437,2.437,0,0,0-.92.868l-1.419-.188,1.185-6.322h6.123v1.442h-4.9l-.669,3.308a3.978,3.978,0,0,1,2.323-.774,3.686,3.686,0,0,1,2.727,1.12,3.906,3.906,0,0,1,1.108,2.868,4.456,4.456,0,0,1-.974,2.885,3.9,3.9,0,0,1-3.237,1.5,3.981,3.981,0,0,1-2.739-.938A3.675,3.675,0,0,1,3196.622,2436.249Z" transform="translate(-3105.96 -2427.113)"/><path class="a" d="M3432.111,2428.967a11.338,11.338,0,0,1,.446-3.513,4.321,4.321,0,0,1,1.337-2.053,3.431,3.431,0,0,1,2.229-.721,3.639,3.639,0,0,1,1.742.4,3.327,3.327,0,0,1,1.231,1.149,6.155,6.155,0,0,1,.763,1.83,12.231,12.231,0,0,1,.276,2.909,11.289,11.289,0,0,1-.446,3.5,4.384,4.384,0,0,1-1.332,2.058,3.4,3.4,0,0,1-2.234.728,3.359,3.359,0,0,1-2.792-1.279Q3432.111,2432.439,3432.111,2428.967Zm1.548,0q0,3.037.71,4.041a2.031,2.031,0,0,0,3.507-.006q.71-1.008.709-4.034t-.709-4.035a2.105,2.105,0,0,0-1.765-1,1.94,1.94,0,0,0-1.666.879A7.756,7.756,0,0,0,3433.659,2428.967Z" transform="translate(-3330.178 -2422.68)"/><path class="a" d="M3669.566,2428.54v-1.454h7.976v1.173a16.981,16.981,0,0,0-2.329,3.331,20.476,20.476,0,0,0-1.788,4.258,15.393,15.393,0,0,0-.575,3.39h-1.56a15.005,15.005,0,0,1,.569-3.513,18.3,18.3,0,0,1,1.566-3.964,16.826,16.826,0,0,1,2.182-3.22Z" transform="translate(-3556.269 -2426.875)"/><path class="a" d="M3904.95,2428.368a2.885,2.885,0,0,1-1.39-.985,2.558,2.558,0,0,1-.452-1.525,3,3,0,0,1,.962-2.264,4.063,4.063,0,0,1,5.166.023,3.035,3.035,0,0,1,.979,2.275,2.524,2.524,0,0,1-.445,1.49,2.852,2.852,0,0,1-1.373.985,3.135,3.135,0,0,1,2.323,3.155,3.541,3.541,0,0,1-1.115,2.657,4.556,4.556,0,0,1-5.882-.006,3.592,3.592,0,0,1-1.12-2.7,3.238,3.238,0,0,1,.61-2.006A3.058,3.058,0,0,1,3904.95,2428.368Zm-.786,3.12a2.735,2.735,0,0,0,.3,1.249,2.168,2.168,0,0,0,.909.938,2.66,2.66,0,0,0,1.308.334,2.426,2.426,0,0,0,1.782-.7,2.593,2.593,0,0,0-.023-3.577,2.5,2.5,0,0,0-1.818-.709,2.4,2.4,0,0,0-2.463,2.463Zm.481-5.688a1.914,1.914,0,0,0,.563,1.431,2.007,2.007,0,0,0,1.466.552,1.971,1.971,0,0,0,1.431-.546,1.793,1.793,0,0,0,.563-1.343,1.9,1.9,0,0,0-.575-1.4,1.955,1.955,0,0,0-1.431-.569,1.989,1.989,0,0,0-1.442.557A1.777,1.777,0,0,0,3904.645,2425.8Z" transform="translate(-3778.152 -2422.68)"/><path class="a" d="M4138.827,2431.793l1.5-.2a3.4,3.4,0,0,0,.893,1.847,2.173,2.173,0,0,0,1.524.569,2.438,2.438,0,0,0,1.8-.739,2.5,2.5,0,0,0,.733-1.83,2.315,2.315,0,0,0-.681-1.718,2.346,2.346,0,0,0-1.724-.675,4.371,4.371,0,0,0-1.067.165l.164-1.326c.1.008.184.012.246.012a3.112,3.112,0,0,0,1.736-.5,1.719,1.719,0,0,0,.773-1.548,1.839,1.839,0,0,0-.562-1.378,2,2,0,0,0-1.454-.545,2.048,2.048,0,0,0-1.467.557,2.839,2.839,0,0,0-.763,1.66l-1.513-.27a3.909,3.909,0,0,1,1.268-2.352,3.631,3.631,0,0,1,2.438-.839,4.029,4.029,0,0,1,1.859.434,3.11,3.11,0,0,1,1.3,1.179,3.038,3.038,0,0,1,.446,1.589,2.6,2.6,0,0,1-.429,1.455,2.847,2.847,0,0,1-1.261,1.032,2.884,2.884,0,0,1,1.7,1.05,3.182,3.182,0,0,1,.6,1.988,3.638,3.638,0,0,1-1.179,2.733,4.13,4.13,0,0,1-2.973,1.126,3.869,3.869,0,0,1-2.692-.968A3.7,3.7,0,0,1,4138.827,2431.793Z" transform="translate(-4003.069 -2422.68)"/></g></g></svg>