<svg xmlns="http://www.w3.org/2000/svg" width="24" height="24" viewBox="0 0 24 24"><defs><style>.a{fill:#fff;}</style></defs><g transform="translate(-2015.471 -664.834)"><path class="a" d="M2025.971,675.834h-10a.5.5,0,0,1-.5-.5v-10a.5.5,0,0,1,.5-.5h10a.5.5,0,0,1,.5.5v10A.5.5,0,0,1,2025.971,675.834Zm-9.5-1h9v-9h-9Z"/><path class="a" d="M2022.971,672.834h-4a.5.5,0,0,1-.5-.5v-4a.5.5,0,0,1,.5-.5h4a.5.5,0,0,1,.5.5v4A.5.5,0,0,1,2022.971,672.834Zm-3.5-1h3v-3h-3Z"/><path class="a" d="M2022.971,685.834h-4a.5.5,0,0,1-.5-.5v-4a.5.5,0,0,1,.5-.5h4a.5.5,0,0,1,.5.5v4A.5.5,0,0,1,2022.971,685.834Zm-3.5-1h3v-3h-3Z"/><path class="a" d="M2035.971,672.834h-4a.5.5,0,0,1-.5-.5v-4a.5.5,0,0,1,.5-.5h4a.5.5,0,0,1,.5.5v4A.5.5,0,0,1,2035.971,672.834Zm-3.5-1h3v-3h-3Z"/><path class="a" d="M2025.971,688.834h-10a.5.5,0,0,1-.5-.5v-10a.5.5,0,0,1,.5-.5h10a.5.5,0,0,1,.5.5v10A.5.5,0,0,1,2025.971,688.834Zm-9.5-1h9v-9h-9Z"/><path class="a" d="M2032.971,682.834a.5.5,0,0,1-.5-.5v-3.5h-3.5a.5.5,0,0,1,0-1h4a.5.5,0,0,1,.5.5v4A.5.5,0,0,1,2032.971,682.834Z"/><path class="a" d="M2037.971,685.834h-5a.5.5,0,0,1-.5-.5v-4a.5.5,0,0,1,1,0v3.5h4.5a.5.5,0,0,1,0,1Z"/><path class="a" d="M2038.971,675.834h-10a.5.5,0,0,1-.5-.5v-10a.5.5,0,0,1,.5-.5h10a.5.5,0,0,1,.5.5v10A.5.5,0,0,1,2038.971,675.834Zm-9.5-1h9v-9h-9Z"/><path class="a" d="M2036.971,681.834a.5.5,0,0,1-.5-.5v-3a.5.5,0,0,1,1,0v3A.5.5,0,0,1,2036.971,681.834Z"/><path class="a" d="M2038.971,681.834h-2a.5.5,0,0,1,0-1h2a.5.5,0,0,1,0,1Z"/><path class="a" d="M2028.971,688.834a.5.5,0,0,1-.5-.5v-7a.5.5,0,0,1,1,0v7A.5.5,0,0,1,2028.971,688.834Z"/><path class="a" d="M2032.971,688.834h-4a.5.5,0,0,1,0-1h4a.5.5,0,0,1,0,1Z"/><path class="a" d="M2037.971,688.834a.5.5,0,0,1-.5-.5v-3a.5.5,0,0,1,1,0v3A.5.5,0,0,1,2037.971,688.834Z"/></g></svg>