<svg xmlns="http://www.w3.org/2000/svg" width="114.623" height="112.629" viewBox="0 0 114.623 112.629">
	<defs>
		<style>.a{fill:none;}.b{fill:#00cb7b;}.c{fill:#1b0f66;}</style>
	</defs>
	<g transform="translate(-106.924 -374.407)">
		<path class="a" d="M174.7,384.407a22.19,22.19,0,0,0-21.652,17.476H196.35A22.191,22.191,0,0,0,174.7,384.407Z" transform="translate(-10.46 -2.268)"/>
		<path class="a" d="M133.333,439.877H121.721l7.012,49.089h76.235l10.28-71.956H118.454l2.162,15.135h12.717Zm16.943,14.941,7.716,7.717,25.218-29.8,5.9,4.994-30.646,36.219-13.658-13.659Z" transform="translate(-2.615 -9.663)"/>
		<path class="b" d="M193.754,407.01a30.029,30.029,0,0,1,.369,4.679h-7.732a22.167,22.167,0,0,0-.5-4.679H142.583a22.116,22.116,0,0,0-.5,4.679h-7.732a29.933,29.933,0,0,1,.369-4.679H106.924l3.267,22.867H118l-2.162-15.135h96.794L202.353,486.7H126.118l-7.012-49.089h-7.811l8.117,56.821H209.06l12.488-87.42Z" transform="translate(0 -7.395)"/>
		<path class="b" d="M172.388,382.139a22.191,22.191,0,0,1,21.654,17.476h7.865a29.887,29.887,0,0,0-59.036,0h7.865A22.19,22.19,0,0,1,172.388,382.139Z" transform="translate(-8.153)"/>
		<path class="b" d="M209.555,411.689h7.732a30.029,30.029,0,0,0-.369-4.679h-7.865A22.167,22.167,0,0,1,209.555,411.689Z" transform="translate(-23.164 -7.395)"/>
		<path class="b" d="M150.126,411.689a22.117,22.117,0,0,1,.5-4.679h-7.865a29.933,29.933,0,0,0-.369,4.679Z" transform="translate(-8.045 -7.395)"/>
		<path class="c" d="M196.843,442.337l-5.9-4.994-25.218,29.8-7.716-7.717-5.468,5.467L166.2,478.556Z" transform="translate(-10.345 -14.274)"/>
	</g>
</svg>